PathFileType	4	(x/y/z)	S10_M20_T34
DataRate	CameraRate	NumFrames	NumMarkers	Units	OrigDataRate	OrigDataStartFrame	OrigNumFrames
240	240	8	51	mm	240	401	534
Frame#	Time	Sternum			R.Acromium			L.Acromium			Top.Head			R.ASIS			L.ASIS			R.PSIS			L.PSIS			R.Great.Tro			L.Great.Tro			R.Iliac.Crest			L.Iliac.Crest			V.Sacral			R.Thigh.Upper.Post			R.Thigh.Lower.Ant			R.Thigh.Lower.Post			R.Thigh.Upper.Ant			R.Knee.Lat			R.Knee.Med			R.Shank.Upper.Post			R.Shank.Lower.Ant			R.Shank.Lower.Post			R.Shank.Upper.Ant			R.Ankle.Lat			R.Ankle.Med			R.Heel.Upper			R.Heel.Med			R.Heel.Lat			R.Toe.Lat			R.Toe.Med			R.Toe.Tip			L.Thigh.Upper.Post			L.Thigh.Lower.Ant			L.Thigh.Lower.Post			L.Thigh.Upper.Ant			L.Knee.Lat			L.Knee.Med			L.Shank.Upper.Post			L.Shank.Lower.Ant			L.Shank.Lower.Post			L.Shank.Upper.Ant			L.Ankle.Lat			L.Ankle.Med			L.Heel.Upper			L.Heel.Med			L.Heel.Lat			L.Toe.Lat			L.Toe.Med			L.Toe.Tip			Cervical.Spine			Back			
		X1	Y1	Z1	X2	Y2	Z2	X3	Y3	Z3	X4	Y4	Z4	X5	Y5	Z5	X6	Y6	Z6	X7	Y7	Z7	X8	Y8	Z8	X9	Y9	Z9	X10	Y10	Z10	X11	Y11	Z11	X12	Y12	Z12	X13	Y13	Z13	X14	Y14	Z14	X15	Y15	Z15	X16	Y16	Z16	X17	Y17	Z17	X18	Y18	Z18	X19	Y19	Z19	X20	Y20	Z20	X21	Y21	Z21	X22	Y22	Z22	X23	Y23	Z23	X24	Y24	Z24	X25	Y25	Z25	X26	Y26	Z26	X27	Y27	Z27	X28	Y28	Z28	X29	Y29	Z29	X30	Y30	Z30	X31	Y31	Z31	X32	Y32	Z32	X33	Y33	Z33	X34	Y34	Z34	X35	Y35	Z35	X36	Y36	Z36	X37	Y37	Z37	X38	Y38	Z38	X39	Y39	Z39	X40	Y40	Z40	X41	Y41	Z41	X42	Y42	Z42	X43	Y43	Z43	X44	Y44	Z44	X45	Y45	Z45	X46	Y46	Z46	X47	Y47	Z47	X48	Y48	Z48	X49	Y49	Z49	X50	Y50	Z50	X51	Y51	Z51	

401	1.6667	1367.9	1260.4	274.28	1260.7	1421.1	423.87	1220	1423.2	118.51	1174.6	1723.7	280.08	1309.7	974.93	395.44	1323.9	1014.2	166.06	1116.9	1008.3	295.18	1127.6	1023.8	215.63	1224.8	886.29	450.56	1277.4	959.15	99.392	1216.1	1055.8	437.02	1256	1089.8	135.89	1098.4	982.37	252.48	1247.5	682.6	457.89	1310.6	604.98	436.68	1245	592.69	452.47	1315.8	697.17	438.6	1243.2	468.84	426.18	1256.7	461.36	295.17	1035.3	392.69	431.66	1016.9	304.01	416.08	972.82	352.05	426.72	1084.7	340.5	421.02	887.82	282.8	407.48	903.24	272.76	326.56	834.05	315.95	355.36	809.67	300.41	328.14	809.2	307.17	390.54	846.34	140.05	436.75	865.82	115.73	332.62	899.77	67.063	374.56	1309.3	675.68	110.13	1394.5	618.32	153.06	1329.2	586.34	139.34	1381.1	703.91	126.19	1380.1	513.28	163.82	1366.5	518.09	292.53	1312.9	302.09	152.03	1372.8	212.23	177.9	1311.9	225.03	161.63	1374.1	288.89	168.5	1325.9	106.27	173.33	1332.1	115.37	264.47	1256.4	77.865	215.56	1264.7	45.567	248.19	1262.1	48.392	181.79	1440.2	42.741	155.31	1462.1	44.12	263.25	1521	57.455	219.49	1160.6	1476.5	291.3	1082.5	1264.9	292.16
402	1.6708	1372.5	1261.6	274.82	1264.5	1422.2	423.94	1225.5	1424.6	118.32	1179.7	1725.1	280.06	1314.3	976.5	395.11	1328.4	1015.2	165.63	1121.5	1009.6	294.89	1132.2	1024.9	215.31	1229.8	887.85	450.57	1281.6	959.84	99.097	1220.6	1057.3	436.68	1260.6	1090.8	135.5	1102.8	983.61	252.2	1255.1	684.27	458.16	1319.3	607.48	436.94	1253.8	594.32	452.89	1323.2	699.71	438.66	1253.7	470.44	426.6	1267.4	462.96	295.45	1046.3	393.46	431.47	1028.3	304.66	415.97	984	352.53	426.47	1095.9	341.46	421	899.24	282.87	407.07	914.83	272.75	326.45	844.63	315.22	354.97	820.57	299.23	327.72	819.99	306.06	390.1	860.04	139.74	436.61	879.95	115.61	332.5	914.69	67.627	374.49	1311.9	676.21	109.97	1396.3	618.1	152.91	1331.1	586.7	139.09	1383.9	703.9	126.02	1381.6	513.23	163.6	1367.8	518	292.2	1313.6	302.17	151.87	1373.2	212.15	177.89	1312.3	225.12	161.55	1374.8	288.79	168.42	1326	106.27	173.3	1332.1	115.43	264.52	1256.4	77.92	215.56	1264.7	45.607	248.2	1262.1	48.473	181.8	1440.2	42.739	155.32	1462	43.991	263.24	1521	57.393	219.51	1165.1	1477.7	290.75	1087.1	1266.1	290.96
403	1.675	1377.1	1262.9	275.33	1268.2	1423.4	424	1231.1	1426	118.14	1184.7	1726.5	280.06	1318.9	978.08	394.76	1333	1016.2	165.18	1126.1	1010.9	294.64	1136.7	1026	215.01	1234.9	889.43	450.62	1285.9	960.52	98.802	1225	1058.8	436.34	1265.2	1091.8	135.09	1107.3	984.83	251.96	1262.8	686	458.44	1327.9	610.04	437.18	1262.7	596.01	453.33	1330.6	702.31	438.7	1264.2	472.12	427.03	1278	464.63	295.76	1057.3	394.18	431.25	1039.7	305.25	415.9	995.18	352.92	426.2	1107.1	342.41	421.01	910.74	282.73	406.69	926.5	272.57	326.37	855.27	314.24	354.61	831.57	297.81	327.33	830.86	304.68	389.69	873.91	139.22	436.46	894.28	115.32	332.38	929.83	68.055	374.41	1314.5	676.74	109.81	1398.1	617.87	152.74	1333	587.06	138.83	1386.7	703.88	125.82	1383	513.19	163.37	1368.9	517.89	291.85	1314.3	302.24	151.69	1373.6	212.07	177.89	1312.8	225.21	161.45	1375.5	288.7	168.34	1326.1	106.28	173.27	1332.2	115.49	264.56	1256.4	77.973	215.56	1264.8	45.648	248.2	1262.1	48.553	181.81	1440.2	42.737	155.33	1461.9	43.871	263.22	1521.1	57.334	219.52	1169.6	1478.9	290.21	1091.6	1267.4	289.78
404	1.6792	1381.7	1264.1	275.82	1272	1424.6	424.07	1236.6	1427.5	117.97	1189.8	1727.9	280.09	1323.5	979.66	394.38	1337.5	1017.1	164.71	1130.6	1012.1	294.43	1141.2	1027.1	214.74	1240.1	891.03	450.69	1290.1	961.2	98.506	1229.5	1060.3	436.01	1269.7	1092.7	134.68	1111.7	986.03	251.76	1270.5	687.77	458.75	1336.5	612.65	437.39	1271.6	597.77	453.79	1338	704.94	438.71	1274.6	473.87	427.47	1288.6	466.37	296.09	1068.2	394.85	431.01	1051.2	305.77	415.87	1006.4	353.21	425.92	1118.4	343.34	421.04	922.3	282.39	406.33	938.26	272.2	326.3	865.98	313.01	354.29	842.65	296.12	326.97	841.8	303.03	389.3	887.95	138.5	436.32	908.81	114.88	332.26	945.19	68.354	374.35	1317	677.27	109.65	1399.8	617.62	152.56	1334.8	587.43	138.55	1389.4	703.86	125.61	1384.4	513.15	163.13	1370	517.77	291.48	1315	302.31	151.49	1374.1	211.99	177.88	1313.3	225.29	161.34	1376.1	288.61	168.26	1326.2	106.3	173.24	1332.2	115.56	264.58	1256.4	78.025	215.55	1264.8	45.688	248.2	1262.1	48.632	181.82	1440.2	42.735	155.34	1461.9	43.76	263.21	1521.1	57.278	219.53	1174	1480.2	289.68	1096.2	1268.6	288.62
405	1.6833	1386.2	1265.4	276.27	1275.7	1425.7	424.14	1242.1	1428.9	117.82	1194.8	1729.3	280.13	1328.1	981.24	393.98	1341.9	1018.1	164.23	1135.1	1013.4	294.25	1145.7	1028.1	214.48	1245.2	892.65	450.8	1294.3	961.88	98.21	1234	1061.9	435.69	1274.2	1093.7	134.26	1116.1	987.21	251.59	1278.2	689.59	459.07	1345.1	615.32	437.57	1280.4	599.6	454.27	1345.3	707.6	438.69	1284.9	475.68	427.91	1299.1	468.18	296.44	1079.1	395.46	430.76	1062.7	306.21	415.88	1017.5	353.4	425.63	1129.6	344.26	421.1	933.94	281.85	406	950.09	271.65	326.25	876.75	311.53	354.02	853.83	294.18	326.64	852.83	301.11	388.94	902.15	137.6	436.19	923.53	114.29	332.14	960.74	68.53	374.29	1319.5	677.79	109.48	1401.5	617.38	152.36	1336.6	587.8	138.26	1392.2	703.83	125.38	1385.8	513.12	162.86	1371	517.64	291.11	1315.7	302.37	151.28	1374.5	211.92	177.86	1313.8	225.36	161.21	1376.8	288.53	168.17	1326.4	106.32	173.21	1332.3	115.63	264.6	1256.4	78.076	215.54	1264.8	45.729	248.2	1262.1	48.709	181.82	1440.2	42.733	155.35	1461.8	43.659	263.19	1521.1	57.223	219.55	1178.5	1481.4	289.16	1100.7	1269.8	287.48
406	1.6875	1390.7	1266.6	276.69	1279.4	1426.8	424.2	1247.5	1430.3	117.68	1199.8	1730.6	280.19	1332.7	982.83	393.55	1346.4	1019.1	163.73	1139.6	1014.6	294.1	1150.1	1029.1	214.24	1250.5	894.29	450.93	1298.5	962.55	97.913	1238.5	1063.4	435.37	1278.7	1094.6	133.83	1120.5	988.35	251.45	1285.8	691.45	459.4	1353.7	618.04	437.73	1289.3	601.48	454.77	1352.6	710.3	438.63	1295.2	477.56	428.36	1309.6	470.05	296.82	1089.9	396.02	430.48	1074.2	306.58	415.92	1028.7	353.49	425.33	1140.8	345.15	421.18	945.66	281.11	405.71	962	270.92	326.22	887.59	309.79	353.79	865.11	291.98	326.33	863.94	298.92	388.62	916.51	136.51	436.08	938.43	113.56	332.02	976.49	68.592	374.25	1321.9	678.31	109.3	1403.1	617.13	152.14	1338.3	588.17	137.97	1394.8	703.79	125.13	1387.1	513.1	162.59	1371.9	517.5	290.72	1316.4	302.42	151.05	1374.9	211.85	177.84	1314.2	225.43	161.08	1377.4	288.45	168.07	1326.6	106.36	173.19	1332.3	115.7	264.6	1256.4	78.128	215.53	1264.8	45.77	248.2	1262.1	48.786	181.82	1440.3	42.731	155.36	1461.8	43.568	263.18	1521.1	57.169	219.55	1182.9	1482.6	288.64	1105.2	1271	286.35
407	1.6917	1395.1	1267.9	277.08	1283.1	1427.9	424.27	1253	1431.8	117.55	1204.8	1732	280.26	1337.4	984.41	393.12	1350.9	1020	163.22	1144.1	1015.8	293.98	1154.5	1030.1	214.02	1255.7	895.93	451.08	1302.7	963.21	97.618	1243	1064.9	435.06	1283.1	1095.6	133.4	1124.9	989.47	251.34	1293.5	693.34	459.75	1362.2	620.81	437.85	1298.1	603.42	455.29	1359.9	713.01	438.53	1305.3	479.5	428.81	1320	471.99	297.21	1100.7	396.52	430.19	1085.8	306.87	416	1039.9	353.47	425.02	1152	346.02	421.29	957.44	280.17	405.44	974	270.01	326.21	898.49	307.8	353.59	876.49	289.52	326.06	875.13	296.46	388.32	931.03	135.25	435.98	953.51	112.69	331.92	992.43	68.551	374.22	1324.3	678.83	109.12	1404.7	616.88	151.89	1339.9	588.55	137.66	1397.5	703.74	124.86	1388.4	513.07	162.29	1372.9	517.37	290.32	1317.1	302.48	150.81	1375.3	211.79	177.82	1314.7	225.49	160.94	1378	288.37	167.96	1326.8	106.41	173.16	1332.4	115.78	264.59	1256.5	78.179	215.52	1264.8	45.81	248.2	1262.1	48.86	181.82	1440.3	42.729	155.37	1461.7	43.488	263.16	1521.1	57.117	219.56	1187.3	1483.7	288.14	1109.7	1272.2	285.25
408	1.6958	1399.6	1269.1	277.43	1286.8	1429	424.33	1258.4	1433.2	117.43	1209.8	1733.3	280.35	1342	985.98	392.67	1355.3	1020.9	162.7	1148.6	1017	293.88	1158.9	1031.1	213.81	1261	897.57	451.25	1306.9	963.86	97.323	1247.5	1066.5	434.75	1287.5	1096.5	132.96	1129.3	990.56	251.26	1301.1	695.28	460.11	1370.6	623.61	437.95	1306.9	605.42	455.83	1367.1	715.75	438.4	1315.4	481.48	429.25	1330.3	474	297.62	1111.5	396.95	429.89	1097.4	307.09	416.11	1051	353.34	424.71	1163.2	346.85	421.41	969.3	279.04	405.21	986.07	268.93	326.22	909.46	305.55	353.43	887.97	286.8	325.81	886.42	293.74	388.06	945.71	133.83	435.91	968.77	111.69	331.83	1008.6	68.415	374.23	1326.6	679.34	108.94	1406.3	616.63	151.62	1341.5	588.93	137.34	1400.1	703.68	124.57	1389.6	513.06	161.97	1373.8	517.24	289.91	1317.7	302.53	150.56	1375.6	211.73	177.78	1315.1	225.55	160.78	1378.6	288.3	167.84	1327	106.47	173.14	1332.4	115.86	264.58	1256.5	78.23	215.51	1264.8	45.85	248.19	1262	48.932	181.82	1440.3	42.726	155.37	1461.7	43.418	263.15	1521.2	57.065	219.56	1191.8	1484.9	287.64	1114.1	1273.4	284.17
